<svg xmlns="http://www.w3.org/2000/svg" width="23.383" height="24.265" viewBox="0 0 23.383 24.265">
  <g id="Group_924" data-name="Group 924" transform="translate(0.5 0.5)">
    <path id="Path_77" data-name="Path 77" d="M487.908,45.367a3.761,3.761,0,0,1-7.487,0c0-.02,0-.039,0-.059a3.452,3.452,0,0,1-2.588-3.234,3.112,3.112,0,0,1,.094-.757,3.265,3.265,0,0,1-1.251-2.536,3.143,3.143,0,0,1,.468-1.646,3.145,3.145,0,0,1-.468-1.647,3.265,3.265,0,0,1,1.251-2.536,3.11,3.11,0,0,1-.094-.757,3.451,3.451,0,0,1,2.588-3.234c0-.02,0-.039,0-.059a3.761,3.761,0,0,1,7.487,0h-.077a3.761,3.761,0,0,1,7.487,0c0,.02,0,.039,0,.059A3.451,3.451,0,0,1,497.9,32.2a3.113,3.113,0,0,1-.094.757,3.265,3.265,0,0,1,1.251,2.536,3.144,3.144,0,0,1-.468,1.647,3.142,3.142,0,0,1,.468,1.646,3.265,3.265,0,0,1-1.251,2.536,3.115,3.115,0,0,1,.094.757,3.452,3.452,0,0,1-2.588,3.234c0,.019,0,.039,0,.059a3.761,3.761,0,0,1-7.487,0Z" transform="translate(-476.678 -25.502)" fill="none" stroke="#182a74" stroke-width="1"/>
  </g>
</svg>
