<svg xmlns="http://www.w3.org/2000/svg" width="35.282" height="20.192" viewBox="0 0 35.282 20.192">
  <g id="Group_925" data-name="Group 925" transform="translate(0.5 0.5)">
    <g id="Group_728" data-name="Group 728">
      <path id="Path_238" data-name="Path 238" d="M465.492-185.158" transform="translate(-432.311 190.629)" fill="none" stroke="#182a74" stroke-width="1"/>
      <path id="Path_239" data-name="Path 239" d="M465.492-174.966" transform="translate(-432.311 184.114)" fill="none" stroke="#182a74" stroke-width="1"/>
      <path id="Path_240" data-name="Path 240" d="M406.1-191.383h-8.173s-4.719-8.939-13.721-8.939l-5.516.191a5.8,5.8,0,0,0-5.169,6.146,5.438,5.438,0,0,0,5.169,5.869h2.34c2.737,0,4.306,2.489,7.106,4.979,1.75,1.556,3.411,2.244,4.184,1.887,1.663-.767.607-2.068-.186-2.85-1.746-1.72-2.846-2.516-.466-3.449,2.014-.79,14.433-.43,14.433-.43a1.7,1.7,0,0,0,1.7-1.7A1.7,1.7,0,0,0,406.1-191.383Z" transform="translate(-373.517 200.322)" fill="none" stroke="#182a74" stroke-width="1"/>
    </g>
  </g>
</svg>
