<svg xmlns="http://www.w3.org/2000/svg" width="103.452" height="92.773" viewBox="0 0 103.452 92.773">
  <g id="Group_974" data-name="Group 974" transform="translate(6811 -22600.297)">
    <g id="Group_232" data-name="Group 232" transform="translate(-6811 22600.297)">
      <g id="Group_231" data-name="Group 231">
        <path id="Path_119" data-name="Path 119" d="M651.527,809.651h-.2v0c-25.072.031-51.628,6.209-51.628,28.53s26.557,28.5,51.628,28.527v0l.07,0,.126,0v0c25.072-.032,51.628-6.209,51.628-28.529S676.6,809.68,651.527,809.651Zm0,44.884a16.356,16.356,0,1,1,16.355-16.356A16.356,16.356,0,0,1,651.528,854.535Z" transform="translate(-599.703 -773.935)" fill="#fff"/>
        <g id="Group_230" data-name="Group 230" transform="translate(8.717)">
          <path id="Path_120" data-name="Path 120" d="M690.876,800.5a2.326,2.326,0,0,1-1.647-.683,55.2,55.2,0,0,0-78.065,0,2.33,2.33,0,0,1-3.294-3.3,59.86,59.86,0,0,1,84.654,0,2.33,2.33,0,0,1-1.648,3.978Z" transform="translate(-607.187 -778.988)" fill="#fff"/>
        </g>
        <path id="Path_121" data-name="Path 121" d="M642.042,814.931" transform="translate(-592.727 -773.065)" fill="#fff" stroke="#000" stroke-linecap="round" stroke-linejoin="round" stroke-width="2"/>
      </g>
    </g>
    <circle id="Ellipse_92" data-name="Ellipse 92" cx="18" cy="18" r="18" transform="translate(-6778 22646)" fill="#182a74"/>
  </g>
</svg>
