<svg xmlns="http://www.w3.org/2000/svg" width="118.966" height="104.453" viewBox="0 0 118.966 104.453">
  <path id="Path_254" data-name="Path 254" d="M146.115,1523.114c.317-11.616,2.71-23.585,9.568-32.964s18.919-15.566,30.25-12.992a15.274,15.274,0,0,1,8.158,4.408c2.505,2.825,3.387,6.693,4.182,10.385.666,3.092,1.335,6.278.792,9.395a19.977,19.977,0,0,1-3.411,7.539,52.377,52.377,0,0,1-45.9,22.609,87.51,87.51,0,0,1,27.672,4.724c7.414,2.544,14.714,6.273,19.608,12.4,4.978,6.229,6.976,14.28,8.433,22.12a7.136,7.136,0,0,1-.009,3.848c-.839,2.18-3.447,2.985-5.723,3.512-5.1,1.18-10.317,2.357-15.522,1.8-6.7-.718-12.747-4.236-18.386-7.927-5.759-3.769-11.47-7.931-15.3-13.648-4.215-6.286-5.879-14.045-10.3-20.185,2.482,11.066-3.752,22.45-12.086,30.143a23.932,23.932,0,0,1-8.594,5.534,22.211,22.211,0,0,1-9.554.573c-9.218-1.142-18.732-6.192-21.8-14.958a5.648,5.648,0,0,1-.395-2.829c.346-1.926,2.253-3.138,4.064-3.878a47.539,47.539,0,0,1,10.2-2.5l31.926-5.358c2.626-.441,5.763-1.321,6.45-3.894a5.512,5.512,0,0,0-.565-3.673c-2.044-4.4-6.451-7.217-10.9-9.163s-9.2-3.3-13.25-5.975c-4.807-3.175-8.266-7.97-11.615-12.658-3.171-4.439-6.506-9.573-5.443-14.923a13.328,13.328,0,0,1,6.091-8.223,35.221,35.221,0,0,1,9.707-3.929c2.422-.688,4.982-1.336,7.429-.742,2.934.712,5.175,3.091,6.822,5.621,8.08,12.406,5.737,29.743,14.628,41.581" transform="translate(-87.242 -1476.049)" fill="none" stroke="#182a74" stroke-linecap="round" stroke-miterlimit="10" stroke-width="1"/>
</svg>
