<svg xmlns="http://www.w3.org/2000/svg" width="266.406" height="69.223" viewBox="0 0 266.406 69.223">
  <g id="Group_1350" data-name="Group 1350" transform="translate(721.15 778.497)">
    <g id="Group_1349" data-name="Group 1349" transform="translate(-639.835 -777.997)">
      <path id="Path_487" data-name="Path 487" d="M-421.737-761.93a7.141,7.141,0,0,1-7.141-7.141A8.926,8.926,0,0,1-419.951-778a11.158,11.158,0,0,1,11.158,11.158,13.947,13.947,0,0,1-13.947,13.947h-62.688" transform="translate(500.81 777.997)" fill="none" stroke="#182a74" stroke-linecap="round" stroke-width="1"/>
      <path id="Path_488" data-name="Path 488" d="M-443.966-739.907a7.141,7.141,0,0,1-7.141-7.141,8.926,8.926,0,0,1,8.926-8.926,11.158,11.158,0,0,1,11.158,11.158,13.947,13.947,0,0,1-13.947,13.947h-78.069" transform="translate(523.039 764.981)" fill="none" stroke="#182a74" stroke-linecap="round" stroke-width="1"/>
      <g id="Group_1348" data-name="Group 1348" transform="translate(0 34.111)">
        <path id="Path_489" data-name="Path 489" d="M-396.682-663.526a7.141,7.141,0,0,0-7.141,7.141,8.926,8.926,0,0,0,8.926,8.926,11.158,11.158,0,0,0,11.158-11.158,13.947,13.947,0,0,0-13.947-13.947h-45.352" transform="translate(475.756 681.571)" fill="none" stroke="#182a74" stroke-linecap="round" stroke-width="1"/>
        <path id="Path_490" data-name="Path 490" d="M-443.966-685.549a7.141,7.141,0,0,0-7.141,7.141,8.926,8.926,0,0,0,8.926,8.926,11.158,11.158,0,0,0,11.158-11.158,13.947,13.947,0,0,0-13.947-13.947h-78.069" transform="translate(523.039 694.587)" fill="none" stroke="#182a74" stroke-linecap="round" stroke-width="1"/>
      </g>
    </g>
    <line id="Line_215" data-name="Line 215" x2="63.154" transform="translate(-525.593 -752.892)" fill="none" stroke="#182a74" stroke-linecap="round" stroke-width="1"/>
    <line id="Line_216" data-name="Line 216" x2="63.154" transform="translate(-720.65 -752.892)" fill="none" stroke="#182a74" stroke-linecap="round" stroke-width="1"/>
    <line id="Line_217" data-name="Line 217" x2="31.577" transform="translate(-542.38 -743.885)" fill="none" stroke="#182a74" stroke-linecap="round" stroke-width="1"/>
    <line id="Line_218" data-name="Line 218" x2="31.577" transform="translate(-704.662 -743.885)" fill="none" stroke="#182a74" stroke-linecap="round" stroke-width="1"/>
    <line id="Line_219" data-name="Line 219" x2="50.896" transform="translate(-506.14 -734.879)" fill="none" stroke="#182a74" stroke-linecap="round" stroke-width="1"/>
    <line id="Line_220" data-name="Line 220" x2="29.585" transform="translate(-660.7 -734.879)" fill="none" stroke="#182a74" stroke-linecap="round" stroke-width="1"/>
  </g>
</svg>
