<svg id="Group_232" data-name="Group 232" xmlns="http://www.w3.org/2000/svg" width="20.116" height="18.04" viewBox="0 0 20.116 18.04">
  <g id="Group_231" data-name="Group 231">
    <path id="Path_119" data-name="Path 119" d="M609.78,809.648h-.038c-4.875.006-10.039,1.207-10.039,5.547s5.164,5.541,10.039,5.547h.038c4.875-.006,10.039-1.207,10.039-5.547S614.655,809.654,609.78,809.648Zm0,8.728a3.18,3.18,0,1,1,3.18-3.18A3.18,3.18,0,0,1,609.78,818.376Z" transform="translate(-599.703 -802.704)" fill="#182a74"/>
    <g id="Group_230" data-name="Group 230" transform="translate(1.695)">
      <path id="Path_120" data-name="Path 120" d="M623.46,783.171a.452.452,0,0,1-.32-.133,10.733,10.733,0,0,0-15.18,0,.453.453,0,0,1-.641-.641,11.64,11.64,0,0,1,16.461,0,.453.453,0,0,1-.32.773Z" transform="translate(-607.187 -778.988)" fill="#182a74"/>
    </g>
    <path id="Path_121" data-name="Path 121" d="M642.042,814.931" transform="translate(-632.453 -806.79)" fill="#182a74" stroke="#000" stroke-linecap="round" stroke-linejoin="round" stroke-width="2"/>
  </g>
</svg>
