<svg id="Group_639" data-name="Group 639" xmlns="http://www.w3.org/2000/svg" width="17.111" height="29.35" viewBox="0 0 17.111 29.35">
  <path id="Path_74" data-name="Path 74" d="M580.4,178.031" transform="translate(-568.921 -176.488)" fill="#182a74"/>
  <path id="Path_75" data-name="Path 75" d="M590.588,178.031" transform="translate(-582.195 -176.488)" fill="#182a74"/>
  <path id="Path_76" data-name="Path 76" d="M576.137,177.575l-.052-1.469a1.426,1.426,0,1,0-2.852,0v.5l-.031-2.256a1.426,1.426,0,1,0-2.852,0l-.031,2.621a1.426,1.426,0,0,0-2.852,0s.3,8.407-.361,10.1c-.782,1.994-1.449,1.073-2.891-.39-.655-.665-1.745-1.55-2.388-.156-.3.648.277,2.04,1.581,3.507,2.086,2.347,4.172,3.661,4.172,5.955v1.961a4.557,4.557,0,0,0,4.918,4.331,4.858,4.858,0,0,0,5.15-4.331c0-9.119,1.213-6.311,1.213-12.724,0-2.607-.161-5.709-.161-5.709a1.278,1.278,0,0,0-1.259-1.259,1.259,1.259,0,0,0-1.259,1.259l-.046.447Z" transform="translate(-561.751 -172.926)" fill="#182a74"/>
</svg>
