<svg xmlns="http://www.w3.org/2000/svg" width="537" height="83.37" viewBox="0 0 537 83.37">
  <g id="Group_1462" data-name="Group 1462" transform="translate(-107 -696.5)">
    <text id="Plus" transform="translate(618 745)" fill="#182a74" font-size="26" font-family="Apercu-Regular, Apercu" letter-spacing="0.04em"><tspan x="-25.597" y="0">Plus</tspan></text>
    <g id="Group_701" data-name="Group 701" transform="translate(8.277 39.277)">
      <g id="Group_653" data-name="Group 653" transform="translate(534.385 688.459)">
        <circle id="Ellipse_73" data-name="Ellipse 73" cx="10" cy="10" r="10" fill="#fff"/>
      </g>
    </g>
    <g id="Group_702" data-name="Group 702" transform="translate(0 31)">
      <text id="Minus" transform="translate(143 714)" fill="#182a74" font-size="26" font-family="Apercu-Regular, Apercu" letter-spacing="0.04em"><tspan x="-35.828" y="0">Minus</tspan></text>
      <g id="Group_660" data-name="Group 660" transform="translate(-326.385 8.277)">
        <g id="Group_653-2" data-name="Group 653" transform="translate(534.385 688.459)">
          <circle id="Ellipse_73-2" data-name="Ellipse 73" cx="10" cy="10" r="10" fill="#fff"/>
        </g>
      </g>
    </g>
    <g id="Group_1267" data-name="Group 1267" transform="translate(-1 201)">
      <g id="Group_1266" data-name="Group 1266" transform="translate(-55.592 290.887)">
        <g id="Group_684-2" data-name="Group 684-2">
          <g id="Group_675-2" data-name="Group 675-2">
            <path id="Rectangle_181" data-name="Rectangle 181" d="M351.777,205.113H529.162A41.184,41.184,0,0,1,570.347,246.3v0h0a41.184,41.184,0,0,1-41.184,41.184H351.777a41.182,41.182,0,0,1-41.185-41.18v0h0a41.182,41.182,0,0,1,41.18-41.186h.005Z" fill="#ffafa6" stroke="#182a74" stroke-miterlimit="10" stroke-width="1"/>
            <circle id="Ellipse_71-2-2" data-name="Ellipse 71-2-2" cx="41.185" cy="41.185" r="41.185" transform="translate(310.592 205.113)" fill="none" stroke="#182a74" stroke-miterlimit="10" stroke-width="1"/>
            <g id="Group_647" data-name="Group 647">
              <rect id="Rectangle_184" data-name="Rectangle 184" width="22" height="3.571" transform="translate(341.392 244.613)" fill="#182a74"/>
            </g>
          </g>
          <g id="Group_676-2" data-name="Group 676-2">
            <circle id="Ellipse_72" data-name="Ellipse 72" cx="41.185" cy="41.185" r="41.185" transform="translate(487.978 205.113)" fill="#ffafa6" stroke="#182a74" stroke-miterlimit="10" stroke-width="1"/>
            <g id="Group_646" data-name="Group 646">
              <rect id="Rectangle_182" data-name="Rectangle 182" width="3.571" height="22.004" transform="translate(527.376 235.296)" fill="#182a74"/>
              <rect id="Rectangle_183" data-name="Rectangle 183" width="22.004" height="3.571" transform="translate(518.16 244.514)" fill="#182a74"/>
            </g>
          </g>
        </g>
        <g id="Group_1258" data-name="Group 1258">
          <path id="Path_460" data-name="Path 460" d="M465.631,243.034a6.049,6.049,0,0,1,8.555,0" fill="none" stroke="#182a74" stroke-linecap="round" stroke-miterlimit="10" stroke-width="1"/>
          <path id="Path_461" data-name="Path 461" d="M406.754,243.034a6.05,6.05,0,0,1,8.556,0" fill="none" stroke="#182a74" stroke-linecap="round" stroke-miterlimit="10" stroke-width="1"/>
          <path id="Path_462" data-name="Path 462" d="M470.006,242.149c0,8.387-9.776,22.874-29.487,22.874s-29.487-14.487-29.487-22.874" fill="none" stroke="#182a74" stroke-linecap="round" stroke-miterlimit="10" stroke-width="1"/>
        </g>
      </g>
    </g>
  </g>
</svg>
