<svg xmlns="http://www.w3.org/2000/svg" width="574.383" height="351.309" viewBox="0 0 574.383 351.309">
  <g id="Group_1273" data-name="Group 1273" transform="translate(-87.5 -330.5)">
    <g id="Group_1272" data-name="Group 1272" transform="translate(88 331)">
      <g id="Group_706" data-name="Group 706" transform="translate(397.255 0)">
        <g id="Group_684" data-name="Group 684">
          <g id="Group_685" data-name="Group 685">
            <g id="Group_675" data-name="Group 675">
              <path id="Path_237" data-name="Path 237" d="M679.5,295.94h-125" transform="translate(-554.497 -74.833)" fill="none" stroke="#182a74" stroke-linecap="round" stroke-width="1"/>
              <path id="Ellipse_71-2" data-name="Ellipse 71-2" d="M717.2,212.041h0a16.29,16.29,0,0,1,16.29,16.29V348.55a74.045,74.045,0,0,1-74.044,74.044H648.667" transform="translate(-557.357 -72.285)" fill="none" stroke="#182a74" stroke-miterlimit="10" stroke-width="1"/>
              <g id="Group_676" data-name="Group 676" transform="translate(120.205)">
                <path id="Rectangle_187" data-name="Rectangle 187" d="M701.692,67.907h0a23.226,23.226,0,0,1,23.221,23.225v49.855H678.468V91.132a23.225,23.225,0,0,1,23.223-23.225Z" transform="translate(-678.468 -67.907)" fill="none" stroke="#182a74" stroke-linecap="round" stroke-miterlimit="10" stroke-width="1"/>
                <path id="Path_235" data-name="Path 235" d="M692.5,160.307V282.735a9.089,9.089,0,0,1-9.087,9.088h0" transform="translate(-678.618 -70.714)" fill="none" stroke="#182a74" stroke-linecap="round" stroke-miterlimit="10" stroke-width="1"/>
                <path id="Path_236" data-name="Path 236" d="M709.969,160.308v41.069a9.089,9.089,0,0,0,9.087,9.088h0" transform="translate(-679.425 -70.714)" fill="none" stroke="#182a74" stroke-linecap="round" stroke-miterlimit="10" stroke-width="1"/>
                <rect id="Rectangle_188" data-name="Rectangle 188" width="46.448" height="16.513" transform="translate(0 73.08)" fill="none" stroke="#182a74" stroke-linecap="round" stroke-miterlimit="10" stroke-width="1"/>
              </g>
            </g>
          </g>
        </g>
      </g>
      <g id="Group_1259" data-name="Group 1259" transform="translate(526.222 20.712)">
        <path id="Path_457" data-name="Path 457" d="M708.494,91.043a6.062,6.062,0,0,1,8.572,0" transform="translate(-688.142 -89.268)" fill="none" stroke="#182a74" stroke-linecap="round" stroke-miterlimit="10" stroke-width="1"/>
        <path id="Path_458" data-name="Path 458" d="M687.5,91.043a6.06,6.06,0,0,1,8.571,0" transform="translate(-687.504 -89.268)" fill="none" stroke="#182a74" stroke-linecap="round" stroke-miterlimit="10" stroke-width="1"/>
        <path id="Path_459" data-name="Path 459" d="M712.916,105.817" transform="translate(-688.276 -89.771)" fill="none" stroke="#182a74" stroke-linecap="round" stroke-miterlimit="10" stroke-width="1"/>
      </g>
      <path id="Path_468" data-name="Path 468" d="M633.362,425.131H209.516a64.718,64.718,0,1,1,0-129.436" transform="translate(-144.797 -74.826)" fill="none" stroke="#182a74" stroke-miterlimit="10" stroke-width="1"/>
      <ellipse id="Ellipse_115" data-name="Ellipse 115" cx="3.607" cy="4.836" rx="3.607" ry="4.836" transform="translate(540.601 52.528)" fill="#182a74"/>
      <ellipse id="Ellipse_115-2" data-name="Ellipse 115" cx="3.607" cy="4.836" rx="3.607" ry="4.836" transform="translate(523.711 52.528)" fill="#182a74"/>
      <g id="Group_1270" data-name="Group 1270" transform="translate(104.712 181.175)">
        <g id="Group_684-2" data-name="Group 684-2">
          <g id="Group_675-2" data-name="Group 675-2">
            <path id="Rectangle_181" data-name="Rectangle 181" d="M292.724,254.758h172a39.933,39.933,0,0,1,39.934,39.931v0h0a39.933,39.933,0,0,1-39.933,39.934h-172a39.932,39.932,0,0,1-39.934-39.93v0h0a39.93,39.93,0,0,1,39.929-39.934h0Z" transform="translate(-252.79 -254.758)" fill="#ffafa6" stroke="#182a74" stroke-miterlimit="10" stroke-width="1"/>
            <circle id="Ellipse_71-2-2" data-name="Ellipse 71-2-2" cx="39.934" cy="39.934" r="39.934" fill="none" stroke="#182a74" stroke-miterlimit="10" stroke-width="1"/>
            <g id="Group_647" data-name="Group 647" transform="translate(29.864 38.3)">
              <rect id="Rectangle_184" data-name="Rectangle 184" width="21.332" height="3.463" fill="#182a74"/>
            </g>
          </g>
          <g id="Group_676-2" data-name="Group 676-2" transform="translate(171.998)">
            <circle id="Ellipse_72" data-name="Ellipse 72" cx="39.934" cy="39.934" r="39.934" fill="#ffafa6" stroke="#182a74" stroke-miterlimit="10" stroke-width="1"/>
            <g id="Group_646" data-name="Group 646" transform="translate(29.265 29.266)">
              <rect id="Rectangle_182" data-name="Rectangle 182" width="3.463" height="21.336" transform="translate(8.936)" fill="#182a74"/>
              <rect id="Rectangle_183" data-name="Rectangle 183" width="21.336" height="3.463" transform="translate(0 8.938)" fill="#182a74"/>
            </g>
          </g>
        </g>
        <g id="Group_1258" data-name="Group 1258" transform="translate(93.241 35.05)">
          <path id="Path_460" data-name="Path 460" d="M407.829,292.624a5.864,5.864,0,0,1,8.294,0" transform="translate(-350.74 -290.906)" fill="none" stroke="#182a74" stroke-linecap="round" stroke-miterlimit="10" stroke-width="1"/>
          <path id="Path_461" data-name="Path 461" d="M348.952,292.624a5.865,5.865,0,0,1,8.3,0" transform="translate(-348.952 -290.906)" fill="none" stroke="#182a74" stroke-linecap="round" stroke-miterlimit="10" stroke-width="1"/>
          <path id="Path_462" data-name="Path 462" d="M410.413,291.793c0,8.132-9.479,22.179-28.591,22.179s-28.591-14.047-28.591-22.179" transform="translate(-349.082 -290.933)" fill="none" stroke="#182a74" stroke-linecap="round" stroke-miterlimit="10" stroke-width="1"/>
        </g>
      </g>
      <g id="Group_1271" data-name="Group 1271" transform="translate(59.203 211.511)">
        <g id="Group_682" data-name="Group 682">
          <g id="Group_653" data-name="Group 653">
            <circle id="Ellipse_73" data-name="Ellipse 73" cx="9.696" cy="9.696" r="9.696" fill="#fff"/>
          </g>
        </g>
        <g id="Group_683" data-name="Group 683" transform="translate(327.202)">
          <g id="Group_653-2" data-name="Group 653-2">
            <circle id="Ellipse_73-2" data-name="Ellipse 73-2" cx="9.696" cy="9.696" r="9.696" fill="#fff"/>
          </g>
        </g>
      </g>
    </g>
  </g>
</svg>
