<svg xmlns="http://www.w3.org/2000/svg" width="126.277" height="193.559" viewBox="0 0 126.277 193.559">
  <g id="Group_1550" data-name="Group 1550" transform="translate(-631.451 -328.549)">
    <path id="Rectangle_187" data-name="Rectangle 187" d="M693.91,372.5h0a15.659,15.659,0,0,1,15.659,15.659v33.622H678.25v-33.62A15.663,15.663,0,0,1,693.91,372.5Z" fill="none" stroke="#fff" stroke-linecap="round" stroke-miterlimit="10" stroke-width="1"/>
    <path id="Path_235" data-name="Path 235" d="M687.61,432.92v82.56a6.126,6.126,0,0,1-6.124,6.128h0" fill="none" stroke="#fff" stroke-linecap="round" stroke-miterlimit="10" stroke-width="1"/>
    <path id="Path_236" data-name="Path 236" d="M698.842,432.92v27.692a6.13,6.13,0,0,0,6.13,6.128h0" fill="none" stroke="#fff" stroke-linecap="round" stroke-miterlimit="10" stroke-width="1"/>
    <rect id="Rectangle_188" data-name="Rectangle 188" width="31.323" height="11.136" transform="translate(678.248 421.784)" fill="none" stroke="#fff" stroke-linecap="round" stroke-miterlimit="10" stroke-width="1"/>
    <path id="Path_458" data-name="Path 458" d="M691.02,408.765a4.084,4.084,0,0,1,5.774-.006l.006.006" fill="none" stroke="#fff" stroke-linecap="round" stroke-miterlimit="10" stroke-width="1"/>
    <path id="Path_459" data-name="Path 459" d="M700.773,396.591" fill="none" stroke="#fff" stroke-linecap="round" stroke-miterlimit="10" stroke-width="1"/>
    <ellipse id="Ellipse_115-3" data-name="Ellipse 115-3" cx="2.851" cy="3.822" rx="2.851" ry="3.822" transform="translate(697.011 380.8)" fill="#fff"/>
    <ellipse id="Ellipse_115-4" data-name="Ellipse 115-4" cx="2.761" cy="3.702" rx="2.761" ry="3.702" transform="translate(685.189 380.92)" fill="#fff"/>
    <path id="Path_527" data-name="Path 527" d="M662.2,329.049A30.249,30.249,0,0,0,631.951,359.3V491.359A30.249,30.249,0,0,0,662.2,521.608h8.151" fill="none" stroke="#fff" stroke-linecap="round" stroke-miterlimit="10" stroke-width="1" stroke-dasharray="12"/>
    <path id="Path_528" data-name="Path 528" d="M714.332,466.74H726.98a30.248,30.248,0,0,0,30.248-30.248V359.3a30.249,30.249,0,0,0-30.248-30.249" fill="none" stroke="#fff" stroke-linecap="round" stroke-miterlimit="10" stroke-width="1" stroke-dasharray="12"/>
  </g>
</svg>
