<svg xmlns="http://www.w3.org/2000/svg" width="692" height="743.002" viewBox="0 0 692 743.002"><g transform="translate(-38 -127.998)"><g transform="translate(-12.279 -229.078)"><g transform="translate(50.278 447.078)"><rect width="692" height="653" transform="translate(-0.001)" fill="#04bf8a"/></g></g><path d="M144.15,48H157.2c7.2,0,11.55-3.8,11.55-10.55q0-6.375-5.25-8.55a7.007,7.007,0,0,0,3.45-6.45c0-6.2-3.85-9.45-10-9.45h-12.8Zm12.3-29c2.85,0,4.25,1.05,4.25,3.8s-1.35,3.8-4.1,3.8h-5.95V19Zm.15,13.6c3.75,0,5.65,1.55,5.65,4.7s-1.9,4.7-5.65,4.7h-5.95V32.6Zm41.6-9.8H192V32.85c0,6.35-2.55,10.25-5.75,10.25-2.4,0-3.6-1.4-3.6-4.15V22.8h-6.2v18c0,4.95,3.1,7.6,7.75,7.6,3.15,0,5.75-1.5,7.8-4.45V48h6.2Zm8.95-4.4a4.031,4.031,0,1,0,0-5.7A4.075,4.075,0,0,0,207.15,18.4ZM206.9,48h6.2V22.8h-6.2Zm15.25,0h6.2V12.6h-6.2ZM247.6,22.4c-7.4,0-11.5,5.05-11.5,13s4.1,13,11.5,13c2.85,0,5.3-1.55,6.1-3V48h6.2V12.6h-6.2V25.1A8.323,8.323,0,0,0,247.6,22.4Zm-3.35,7.35a5.208,5.208,0,0,1,4.2-2.05,5.048,5.048,0,0,1,4.15,2.05,8.648,8.648,0,0,1,1.65,5.65,8.8,8.8,0,0,1-1.65,5.7,5,5,0,0,1-4.15,2,5.208,5.208,0,0,1-4.2-2.05,8.742,8.742,0,0,1-1.65-5.65A8.742,8.742,0,0,1,244.25,29.75ZM284.8,13V48h6.5V13Zm29.55,29.5a5.025,5.025,0,0,1-2.4.6c-2.2,0-3.3-1.1-3.3-4.1V28.1h6.65V22.8h-6.65V12.6l-6.2,3.9v6.3h-3.9v5.3h3.9v11c0,6.15,3.45,9.3,9.25,9.3a9.616,9.616,0,0,0,4.1-.9Zm29.4-9.4V48h6.5V33.1L360.35,13h-7L347,26.6,340.65,13h-7Zm21,11.65c2.3,2.45,5.4,3.65,9.35,3.65s7.05-1.2,9.35-3.65a13.173,13.173,0,0,0,3.45-9.35,13.05,13.05,0,0,0-3.45-9.3,13.664,13.664,0,0,0-18.7,0,13.05,13.05,0,0,0-3.45,9.3A13.173,13.173,0,0,0,364.75,44.75Zm4.75-14.8a5.827,5.827,0,0,1,9.2,0,8.547,8.547,0,0,1,1.7,5.45,8.79,8.79,0,0,1-1.7,5.5,5.909,5.909,0,0,1-9.2,0,8.79,8.79,0,0,1-1.7-5.5A8.548,8.548,0,0,1,369.5,29.95Zm46.75-7.15h-6.2V32.85c0,6.35-2.55,10.25-5.75,10.25-2.4,0-3.6-1.4-3.6-4.15V22.8h-6.2v18c0,4.95,3.1,7.6,7.75,7.6,3.15,0,5.75-1.5,7.8-4.45V48h6.2Zm14.9,16.25c0-7.65,2.8-11.1,6.75-11.1a5.056,5.056,0,0,1,2.6.7l1.15-5.75a9.952,9.952,0,0,0-3.05-.5,8.878,8.878,0,0,0-7.45,4.5V22.8h-6.2V48h6.2ZM455.6,22.4a8.008,8.008,0,0,0-5.8,2.15,6.929,6.929,0,0,0-2.25,5.2c0,3.6,1.9,5.45,5.1,6.8.95.4,2.7.95,3.55,1.35a8.426,8.426,0,0,1,1.4.6,2.025,2.025,0,0,1,1.35,1.9c0,1.8-1.05,2.7-3.1,2.7-2.35,0-4.05-1.4-5.05-4.15l-4.95,2.65a11.664,11.664,0,0,0,3.75,4.75,9.983,9.983,0,0,0,6.25,2.05,8.707,8.707,0,0,0,6.45-2.45A8.083,8.083,0,0,0,464.8,40a6.414,6.414,0,0,0-1.55-4.1,5.565,5.565,0,0,0-1.8-1.3,17,17,0,0,0-1.8-.95l-2.15-.75-1.8-.65c-1.6-.6-2.4-1.4-2.4-2.45a2.1,2.1,0,0,1,2.3-2.1,5.22,5.22,0,0,1,4.2,2.2l3.7-3.4A9.408,9.408,0,0,0,455.6,22.4Zm39,12.45a14.028,14.028,0,0,0-2.7-8.25,10.807,10.807,0,0,0-9.05-4.2c-8.65,0-12.1,7-12.1,13s3.45,13,12.1,13c5.5,0,9.3-2.45,11.45-7.35l-5-1.85c-1.5,2.6-3.55,3.9-6.1,3.9a5.788,5.788,0,0,1-5.95-5.7H494.6ZM482.85,27.7q4.35,0,5.4,4.8H477.4A5.511,5.511,0,0,1,482.85,27.7ZM502.1,48h6.2V12.6h-6.2Zm16.65-19.9V48h6.2V28.1h5.3V22.8h-5.3V21.05q0-3.15,2.85-3.15a8.086,8.086,0,0,1,3,.7l1.35-5a10.068,10.068,0,0,0-4.7-1c-5.4,0-8.7,2.95-8.7,8.9v1.3h-3.2v5.3Zm22.05,7.8h5.4L547.6,13h-8.2Zm-1.45,8.3a4.15,4.15,0,0,0,8.3,0,4.15,4.15,0,1,0-8.3,0Z" transform="translate(38 369)" fill="#fff"/><g transform="translate(532.793 496.352)"><g transform="translate(4.423 55.678)"><path d="M-1748.28,1329.886v55.678a6.924,6.924,0,0,1-6.924,6.924h0" transform="translate(1755.204 -1329.886)" fill="none" stroke="#000" stroke-miterlimit="10" stroke-width="1"/><path d="M-1688.742,1329.886V1364.9a6.924,6.924,0,0,0,6.924,6.924h0" transform="translate(1708.359 -1329.886)" fill="none" stroke="#000" stroke-miterlimit="10" stroke-width="1"/></g><g transform="translate(0 0)"><path d="M17.694,0h0A17.694,17.694,0,0,1,35.388,17.694V55.678a0,0,0,0,1,0,0H0a0,0,0,0,1,0,0V17.694A17.694,17.694,0,0,1,17.694,0Z" fill="#ff6d00"/><rect width="35.388" height="12.581" transform="translate(0 55.678)" fill="#fff"/></g></g><g transform="translate(1976.758 -1327.25)"><circle cx="29.14" cy="29.14" r="29.14" transform="translate(-1784.94 1853.265)" fill="#fff"/><path d="M29.14,0H156.292a0,0,0,0,1,0,0V58.28a0,0,0,0,1,0,0H29.14A29.14,29.14,0,0,1,0,29.14v0A29.14,29.14,0,0,1,29.14,0Z" transform="translate(-1600.418 1911.545) rotate(-180)"/><circle cx="29.14" cy="29.14" r="29.14" transform="translate(-1657.782 1853.265)" fill="#fff"/><circle cx="17.415" cy="17.415" r="17.415" transform="translate(-1646.057 1865.188)"/><g transform="translate(-1735.113 1872.501)"><rect width="7.661" height="20.204" transform="translate(13.169)" fill="#ffafa6"/><rect width="7.661" height="20.204" transform="translate(0)" fill="#ffafa6"/><rect width="7.661" height="20.204" transform="translate(26.338)" fill="#ffafa6"/><rect width="7.661" height="20.204" transform="translate(39.507)" fill="#ffafa6"/><rect width="7.661" height="20.204" transform="translate(52.676)" fill="#ffafa6"/></g><g transform="translate(-1776.622 1875.666)"><rect width="3.184" height="13.831" transform="translate(0 8.508) rotate(-90)"/><rect width="2.245" height="13.831" transform="translate(154.871 5.793) rotate(90)" fill="#fff"/><rect width="3.184" height="13.831" transform="translate(5.324 0)"/></g></g><g transform="translate(500.537 670)"><g transform="translate(20637 -5217.329)"><circle cx="38.614" cy="38.614" r="38.614" transform="translate(-20609 5229.328)" fill="#182a74"/><rect width="82" height="49" rx="24.5" transform="translate(-20628 5243.329)" fill="#fff"/><circle cx="24.614" cy="24.614" r="24.614" transform="translate(-20628 5243.329)" fill="#ff6d00"/><path d="M3.21-10.05A5.136,5.136,0,0,0,.72-5.25a6.035,6.035,0,0,0,.69,3A4.57,4.57,0,0,0,5.67.12,5.3,5.3,0,0,0,8.13-.435,5.194,5.194,0,0,0,10.62-5.25a6.037,6.037,0,0,0-.7-3A4.518,4.518,0,0,0,5.67-10.62,5.308,5.308,0,0,0,3.21-10.05ZM7.785-7.92A3.732,3.732,0,0,1,8.64-5.25a3.732,3.732,0,0,1-.855,2.67,2.755,2.755,0,0,1-2.115.9,2.81,2.81,0,0,1-2.13-.9A3.8,3.8,0,0,1,2.7-5.25a3.8,3.8,0,0,1,.84-2.67,2.81,2.81,0,0,1,2.13-.9A2.755,2.755,0,0,1,7.785-7.92ZM12.975,0h1.95V-4.5H18.7V-6.3h-3.78V-8.7H19.62v-1.8H12.975Zm8.97,0h1.95V-4.5h3.78V-6.3h-3.78V-8.7h4.7v-1.8H21.945Z" transform="translate(-20620 5274.329)" fill="#fff"/></g></g><g transform="translate(324.781 674.625)"><g transform="translate(0)"><path d="M-116.843,648.716l-13.4-27.6,26.949,13.73L-53.2,686.155a9.968,9.968,0,0,1,0,13.861l-.006.006a9.425,9.425,0,0,1-13.551,0Z" transform="translate(130.241 -621.112)" fill="none" stroke="#182a74" stroke-linecap="round" stroke-linejoin="round" stroke-width="1"/></g><path d="M12.2,0,0,12.2" transform="translate(13.671 14.069)" fill="none" stroke="#182a74" stroke-linecap="round" stroke-width="1"/><path d="M-125.8,630.058l4.495-4.5-8.939-4.45Z" transform="translate(130.241 -621.112)" fill="#182a74" stroke="#182a74" stroke-width="1"/></g><g transform="translate(-237 97)"><g transform="translate(-161.75 404.074)"><path d="M580.4,178.031" fill="#fff"/><path d="M590.588,178.031" fill="#fff"/><path d="M570.765,188.3l.171-4.858a4.717,4.717,0,1,1,9.433,0V185.1l.1-7.462a4.716,4.716,0,1,1,9.433,0l.1,2.054a4.717,4.717,0,0,1,9.434,0s-1,34.423,1.193,40.006c2.587,6.6,4.793,3.549,9.561-1.291,2.166-2.2,5.774-5.127,7.9-.517.988,2.144-.918,6.748-5.23,11.6-6.9,7.762-13.8,12.11-13.8,19.7v6.485S598.633,270,582.8,270s-17.035-14.327-17.035-14.327c0-30.162-4.011-20.874-4.011-42.087,0-8.624.533-18.884.533-18.884a4.228,4.228,0,0,1,4.165-4.164,4.164,4.164,0,0,1,4.164,4.164l.152,1.477Z" fill="#fff"/><line y2="35.032" transform="translate(590.053 188.031)" fill="none" stroke="#000" stroke-linecap="round" stroke-linejoin="round" stroke-width="2"/><line y2="32.541" transform="translate(580.396 192.031)" fill="none" stroke="#000" stroke-linecap="round" stroke-linejoin="round" stroke-width="2"/><line y2="24.291" transform="translate(570.765 203.302)" fill="none" stroke="#000" stroke-linecap="round" stroke-linejoin="round" stroke-width="2"/></g></g><path d="M7.08-5.48c2.86,0,4.38-1.7,4.38-4.26S9.94-14,7.08-14H1.8V0H4.4V-5.48ZM4.4-7.88V-11.6H6.98A1.638,1.638,0,0,1,8.82-9.74,1.638,1.638,0,0,1,6.98-7.88Zm12.22,4.3c0-3.06,1.12-4.44,2.7-4.44a2.023,2.023,0,0,1,1.04.28l.46-2.3a3.981,3.981,0,0,0-1.22-.2,3.551,3.551,0,0,0-2.98,1.8v-1.64H14.14V0h2.48Zm15.6-1.68a5.611,5.611,0,0,0-1.08-3.3,4.323,4.323,0,0,0-3.62-1.68c-3.46,0-4.84,2.8-4.84,5.2S24.06.16,27.52.16A4.6,4.6,0,0,0,32.1-2.78l-2-.74a2.736,2.736,0,0,1-2.44,1.56,2.315,2.315,0,0,1-2.38-2.28h6.94Zm-4.7-2.86A2.092,2.092,0,0,1,29.68-6.2H25.34A2.2,2.2,0,0,1,27.52-8.12Zm10.84-2.12a3.2,3.2,0,0,0-2.32.86,2.772,2.772,0,0,0-.9,2.08,2.757,2.757,0,0,0,2.04,2.72c.38.16,1.08.38,1.42.54a3.371,3.371,0,0,1,.56.24.81.81,0,0,1,.54.76c0,.72-.42,1.08-1.24,1.08a2.124,2.124,0,0,1-2.02-1.66L34.46-2.56a4.666,4.666,0,0,0,1.5,1.9,3.993,3.993,0,0,0,2.5.82,3.483,3.483,0,0,0,2.58-.98,3.233,3.233,0,0,0,1-2.38,2.565,2.565,0,0,0-.62-1.64,2.226,2.226,0,0,0-.72-.52,6.8,6.8,0,0,0-.72-.38l-.86-.3L38.4-6.3c-.64-.24-.96-.56-.96-.98a.841.841,0,0,1,.92-.84,2.088,2.088,0,0,1,1.68.88L41.52-8.6A3.763,3.763,0,0,0,38.36-10.24Zm9.82,0a3.2,3.2,0,0,0-2.32.86,2.772,2.772,0,0,0-.9,2.08A2.757,2.757,0,0,0,47-4.58c.38.16,1.08.38,1.42.54a3.371,3.371,0,0,1,.56.24.81.81,0,0,1,.54.76c0,.72-.42,1.08-1.24,1.08a2.124,2.124,0,0,1-2.02-1.66L44.28-2.56a4.666,4.666,0,0,0,1.5,1.9,3.993,3.993,0,0,0,2.5.82,3.483,3.483,0,0,0,2.58-.98,3.233,3.233,0,0,0,1-2.38,2.565,2.565,0,0,0-.62-1.64,2.226,2.226,0,0,0-.72-.52,6.8,6.8,0,0,0-.72-.38l-.86-.3-.72-.26c-.64-.24-.96-.56-.96-.98a.841.841,0,0,1,.92-.84,2.088,2.088,0,0,1,1.68.88L51.34-8.6A3.763,3.763,0,0,0,48.18-10.24ZM60.84,0h2.48V-4.26c0-2.54,1.08-3.86,2.36-3.86q1.5,0,1.5,1.8V0h2.48V-7.2a2.808,2.808,0,0,0-3.14-3.04,3.581,3.581,0,0,0-3.2,1.78v-5.7H60.84ZM82.4-5.26a5.611,5.611,0,0,0-1.08-3.3,4.323,4.323,0,0,0-3.62-1.68c-3.46,0-4.84,2.8-4.84,5.2S74.24.16,77.7.16a4.6,4.6,0,0,0,4.58-2.94l-2-.74a2.736,2.736,0,0,1-2.44,1.56,2.315,2.315,0,0,1-2.38-2.28H82.4ZM77.7-8.12A2.092,2.092,0,0,1,79.86-6.2H75.52A2.2,2.2,0,0,1,77.7-8.12ZM87.92-3.58c0-3.06,1.12-4.44,2.7-4.44a2.023,2.023,0,0,1,1.04.28l.46-2.3a3.981,3.981,0,0,0-1.22-.2,3.551,3.551,0,0,0-2.98,1.8v-1.64H85.44V0h2.48Zm15.6-1.68a5.611,5.611,0,0,0-1.08-3.3,4.323,4.323,0,0,0-3.62-1.68c-3.46,0-4.84,2.8-4.84,5.2S95.36.16,98.82.16a4.6,4.6,0,0,0,4.58-2.94l-2-.74a2.736,2.736,0,0,1-2.44,1.56,2.315,2.315,0,0,1-2.38-2.28h6.94Zm-4.7-2.86a2.092,2.092,0,0,1,2.16,1.92H96.64A2.2,2.2,0,0,1,98.82-8.12ZM107-.36a1.74,1.74,0,0,0,2.4,0,1.74,1.74,0,0,0,0-2.4,1.74,1.74,0,0,0-2.4,0A1.74,1.74,0,0,0,107-.36Zm6.44,0a1.74,1.74,0,0,0,2.4,0,1.74,1.74,0,0,0,0-2.4,1.74,1.74,0,0,0-2.4,0A1.74,1.74,0,0,0,113.44-.36Zm6.44,0a1.74,1.74,0,0,0,2.4,0,1.74,1.74,0,0,0,0-2.4,1.74,1.74,0,0,0-2.4,0A1.74,1.74,0,0,0,119.88-.36Z" transform="translate(509.5 292)" fill="#fff"/><path d="M20196-18135v-75.775h42V-18135a21,21,0,0,1-21,21A21,21,0,0,1,20196-18135Zm0-75.775,21-36.229,21,36.229Z" transform="translate(-19641 18375)" fill="#ffdc20"/><g transform="translate(25.482 380.535)"><g transform="translate(373.517 -200.322)"><path d="M465.492-185.158" transform="translate(-335.792 206.542)" fill="#fff"/><path d="M465.492-174.966" transform="translate(-335.792 210.722)" fill="#fff"/><path d="M500.866-165.38H468.919s-18.446-34.942-53.634-34.942l-21.563.746s-20.2,1.694-20.2,24.023,20.2,22.942,20.2,22.942h9.145c10.7,0,16.83,9.73,27.777,19.46,6.841,6.082,13.333,8.77,16.356,7.377,6.5-3,2.372-8.084-.728-11.139-6.827-6.724-11.123-9.834-1.822-13.483,7.873-3.088,56.415-1.682,56.415-1.682a6.651,6.651,0,0,0,6.652-6.65A6.652,6.652,0,0,0,500.866-165.38Z" transform="translate(-373.517 200.322)" fill="#fff"/></g><path d="M440.449-169.652s-10.675-20.222-31.039-20.222" transform="translate(14.722 4.285)" fill="none" stroke="#182a74" stroke-linecap="round" stroke-linejoin="round" stroke-width="2"/><path d="M424.93-172.593S419.593-182.7,409.41-182.7" transform="translate(14.722 7.226)" fill="none" stroke="#000" stroke-linecap="round" stroke-linejoin="round" stroke-width="2"/></g></g></svg>