<svg xmlns="http://www.w3.org/2000/svg" width="620.312" height="609.033" viewBox="0 0 620.312 609.033">
  <g id="Group_1635" data-name="Group 1635" transform="translate(-80.687 -172.1)">
    <path id="Path_553" data-name="Path 553" d="M162.7,19v2.52c3.66.3,4.56,1.02,3.6,4.2l-6.18,20.16-6.18-20.16c-.96-3.12,0-3.9,3.66-4.2V19H138.7v2.52c2.46.3,3.24,1.08,4.2,4.2l.24.72-6,19.44-6.18-20.16c-.96-3.12-.18-3.9,3.66-4.2V19H115.66v2.52c2.34.3,3.3,1.08,4.26,4.2L130.6,61h6.84l8.04-26.7,8.1,26.7h6.84l10.62-35.28c1.02-3.12,2.1-3.9,4.44-4.2V19Zm36.9-.9c-13.68,0-21.84,8.64-21.84,21.9s8.16,21.9,21.84,21.9,21.78-8.64,21.78-21.9S213.28,18.1,199.6,18.1Zm0,39.9c-8.16,0-10.44-7.56-10.44-18s2.28-18.06,10.44-18.06S209.98,29.56,209.98,40,207.76,58,199.6,58Zm49.8-39.9c-13.68,0-21.84,8.64-21.84,21.9s8.16,21.9,21.84,21.9,21.78-8.64,21.78-21.9S263.08,18.1,249.4,18.1Zm0,39.9c-8.16,0-10.44-7.56-10.44-18s2.28-18.06,10.44-18.06S259.78,29.56,259.78,40,257.56,58,249.4,58Zm27.3,3h20.1V58.48c-3.84-.3-4.74-.78-4.74-4.2V41.5h5.16c12.66,0,19.92-2.4,19.92-11.4,0-8.64-7.26-11.1-19.74-11.1H276.7v2.52c3.96.3,4.74.72,4.74,4.2V54.28c0,3.42-.9,3.9-4.74,4.2Zm20.7-37.92c5.16,0,8.34,1.44,8.34,7.02,0,5.52-3.18,7.32-8.52,7.32h-5.16V24.88a1.7,1.7,0,0,1,1.8-1.8Zm29.34,23.94h3.54c.42-10.86,3.96-15.6,3.96-21.42,0-4.92-2.58-7.5-5.76-7.5s-5.7,2.58-5.7,7.56C322.78,31.42,326.32,36.16,326.74,47.02Zm1.74,3.6a5.581,5.581,0,1,0,0,11.16,5.585,5.585,0,1,0,0-11.16ZM402.04,19v2.52c3.66.3,4.56,1.02,3.6,4.2l-6.18,20.16-6.18-20.16c-.96-3.12,0-3.9,3.66-4.2V19h-18.9v2.52c2.46.3,3.24,1.08,4.2,4.2l.24.72-6,19.44L370.3,25.72c-.96-3.12-.18-3.9,3.66-4.2V19H355v2.52c2.34.3,3.3,1.08,4.26,4.2L369.94,61h6.84l8.04-26.7,8.1,26.7h6.84l10.62-35.28c1.02-3.12,2.1-3.9,4.44-4.2V19Zm36.9-.9c-13.68,0-21.84,8.64-21.84,21.9s8.16,21.9,21.84,21.9,21.78-8.64,21.78-21.9S452.62,18.1,438.94,18.1Zm0,39.9c-8.16,0-10.44-7.56-10.44-18s2.28-18.06,10.44-18.06S449.32,29.56,449.32,40,447.1,58,438.94,58Zm49.8-39.9c-13.68,0-21.84,8.64-21.84,21.9s8.16,21.9,21.84,21.9,21.78-8.64,21.78-21.9S502.42,18.1,488.74,18.1Zm0,39.9c-8.16,0-10.44-7.56-10.44-18s2.28-18.06,10.44-18.06S499.12,29.56,499.12,40,496.9,58,488.74,58Zm27.3,3h20.1V58.48c-3.84-.3-4.74-.78-4.74-4.2V41.5h5.16c12.66,0,19.92-2.4,19.92-11.4,0-8.64-7.26-11.1-19.74-11.1h-20.7v2.52c3.96.3,4.74.72,4.74,4.2V54.28c0,3.42-.9,3.9-4.74,4.2Zm20.7-37.92c5.16,0,8.34,1.44,8.34,7.02,0,5.52-3.18,7.32-8.52,7.32H531.4V24.88a1.7,1.7,0,0,1,1.8-1.8Zm29.34,23.94h3.54c.42-10.86,3.96-15.6,3.96-21.42,0-4.92-2.58-7.5-5.76-7.5s-5.7,2.58-5.7,7.56C562.12,31.42,565.66,36.16,566.08,47.02Zm1.74,3.6a5.581,5.581,0,1,0,0,11.16,5.585,5.585,0,1,0,0-11.16Z" transform="translate(38 154)" fill="#182a74"/>
    <g id="Group_1341" data-name="Group 1341" transform="translate(0 -22)">
      <g id="Group_1339" data-name="Group 1339">
        <g id="Group_781" data-name="Group 781" transform="translate(13148 -16934)">
          <circle id="Ellipse_80" data-name="Ellipse 80" cx="217" cy="217" r="217" transform="translate(-12969 17272)" fill="#96d5ef"/>
          <g id="Group_777" data-name="Group 777" transform="translate(-13246.938 16754.891)">
            <g id="Group_192" data-name="Group 192">
              <path id="Path_97" data-name="Path 97" d="M494.806,773.978V742.109H494.8a31.869,31.869,0,0,0-31.862,31.869h31.868Z"/>
              <path id="Path_98" data-name="Path 98" d="M526.674,773.978H494.806v31.868A31.868,31.868,0,0,0,526.674,773.978Z"/>
            </g>
            <g id="Group_193" data-name="Group 193">
              <path id="Path_99" data-name="Path 99" d="M494.807,773.978h31.867v-.006a31.867,31.867,0,0,0-31.868-31.862h0Z" fill="#fff"/>
              <path id="Path_100" data-name="Path 100" d="M494.807,805.847V773.978H462.939A31.868,31.868,0,0,0,494.807,805.847Z" fill="#fff"/>
            </g>
          </g>
          <g id="Group_778" data-name="Group 778" transform="translate(-13336.17 17018.781)">
            <g id="Group_119" data-name="Group 119" transform="translate(506.301 345.78)">
              <path id="Path_72" data-name="Path 72" d="M537.186,389.642c-19.317,0-30.885-9.819-30.885-21.931s11.568-21.931,30.885-21.931h0c19.317,0,30.885,9.819,30.885,21.931s-11.568,21.931-30.885,21.931Z" transform="translate(-506.301 -345.78)" fill="#fff"/>
              <circle id="Ellipse_15" data-name="Ellipse 15" cx="12.573" cy="12.573" r="12.573" transform="translate(18.312 9.358)"/>
            </g>
            <g id="Group_120" data-name="Group 120" transform="translate(600.814 345.78)">
              <path id="Path_73" data-name="Path 73" d="M642.742,389.642c-19.317,0-30.884-9.819-30.884-21.931s11.567-21.931,30.884-21.931h0c19.318,0,30.885,9.819,30.885,21.931s-11.567,21.931-30.885,21.931Z" transform="translate(-611.858 -345.78)" fill="#fff"/>
              <circle id="Ellipse_16" data-name="Ellipse 16" cx="12.573" cy="12.573" r="12.573" transform="translate(18.311 9.358)"/>
            </g>
          </g>
        </g>
        <g id="Group_1338" data-name="Group 1338" transform="translate(276.129 600)">
          <path id="Path_486" data-name="Path 486" d="M5850.372,9527.954a104.2,104.2,0,0,0,104.2,104.2" transform="translate(-5834.702 -9521.382)" fill="none" stroke="#000" stroke-miterlimit="10" stroke-width="1"/>
          <ellipse id="Ellipse_119" data-name="Ellipse 119" cx="19" cy="18.5" rx="19" ry="18.5" transform="translate(0 0)" fill="#fff"/>
        </g>
      </g>
      <g id="Group_1340" data-name="Group 1340">
        <g id="Group_1337" data-name="Group 1337" transform="translate(-481.064 105.918)">
          <path id="Path_74" data-name="Path 74" d="M580.4,178.031" transform="translate(28.532 7.812)" fill="#fff"/>
          <path id="Path_75" data-name="Path 75" d="M590.588,178.031" transform="translate(44.129 7.812)" fill="#fff"/>
          <path id="Path_76" data-name="Path 76" d="M584.559,211.832l.433-12.292a11.934,11.934,0,1,1,23.868,0v4.2l.263-18.881a11.934,11.934,0,1,1,23.868,0l.263,5.2a11.935,11.935,0,0,1,23.87,0s-2.522,87.1,3.019,101.226c6.546,16.69,12.128,8.98,24.192-3.267,5.48-5.562,14.61-12.973,19.984-1.308,2.5,5.425-2.323,17.074-13.234,29.351C673.627,335.7,656.168,346.7,656.168,365.9v16.409S655.073,418.56,615,418.56s-43.1-36.251-43.1-36.251c0-76.318-10.149-52.817-10.149-106.492,0-21.821,1.349-47.782,1.349-47.782.428-6,4.719-10.536,10.539-10.536a10.537,10.537,0,0,1,10.536,10.536l.385,3.737Z" transform="translate(0 0)" fill="#fff"/>
          <line id="Line_31" data-name="Line 31" y2="88.641" transform="translate(633.363 211.145)" fill="none" stroke="#000" stroke-linecap="round" stroke-linejoin="round" stroke-width="2"/>
          <line id="Line_32" data-name="Line 32" y2="82.338" transform="translate(608.927 221.267)" fill="none" stroke="#000" stroke-linecap="round" stroke-linejoin="round" stroke-width="2"/>
          <line id="Line_33" data-name="Line 33" y2="61.463" transform="translate(584.559 249.787)" fill="none" stroke="#000" stroke-linecap="round" stroke-linejoin="round" stroke-width="2"/>
        </g>
        <g id="Group_1074" data-name="Group 1074" transform="translate(-19 6)">
          <g id="Group_1073" data-name="Group 1073" transform="translate(326.719 1291.047) rotate(-90)">
            <path id="Path_74-2" data-name="Path 74" d="M580.4,178.031" transform="translate(23.677 6.483)" fill="#fff"/>
            <path id="Path_75-2" data-name="Path 75" d="M590.588,178.031" transform="translate(36.619 6.483)" fill="#fff"/>
            <path id="Path_76-2" data-name="Path 76" d="M582.212,207.827,582.6,196.8a10.706,10.706,0,1,1,21.412,0v3.77l.236-16.938a10.706,10.706,0,1,1,21.412,0l.236,4.662a10.707,10.707,0,0,1,21.414,0s-2.263,78.136,2.708,90.808c5.872,14.972,10.879,8.056,21.7-2.93,4.916-4.989,13.106-11.638,17.927-1.174,2.242,4.867-2.084,15.317-11.872,26.33-15.662,17.619-31.324,27.488-31.324,44.709v14.72s-.983,32.52-36.928,32.52-38.667-32.52-38.667-32.52c0-68.464-9.1-47.381-9.1-95.532,0-19.575,1.21-42.864,1.21-42.864.384-5.38,4.233-9.452,9.454-9.452a9.452,9.452,0,0,1,9.452,9.452l.345,3.353Z" transform="translate(0)" fill="#182a74"/>
          </g>
          <g id="Group_1072" data-name="Group 1072" transform="translate(-1549.688 -326.777)">
            <path id="Path_332" data-name="Path 332" d="M2125.031,1011.3c.572-2.89,4.235-5.548,4.235-8.606s-3.663-5.716-4.235-8.606c-.589-2.978,1.768-6.832.631-9.572-1.156-2.788-5.558-3.842-7.217-6.32-1.671-2.5-.971-6.965-3.088-9.082s-6.585-1.416-9.082-3.088c-2.478-1.659-3.532-6.061-6.32-7.217-2.74-1.136-6.594,1.22-9.572.631-2.89-.572-5.548-4.235-8.607-4.235s-5.716,3.663-8.606,4.235c-2.978.589-6.831-1.767-9.571-.631-2.788,1.156-3.842,5.559-6.32,7.217-2.5,1.672-6.965.971-9.082,3.088s-1.416,6.586-3.087,9.082c-1.659,2.478-6.062,3.531-7.218,6.319-1.136,2.74,1.22,6.594.631,9.572-.572,2.89-4.235,5.548-4.235,8.606s3.663,5.716,4.235,8.606c.589,2.978-1.767,6.832-.631,9.572,1.156,2.788,5.558,3.841,7.217,6.319,1.672,2.5.97,6.965,3.088,9.082s6.586,1.416,9.082,3.087c2.478,1.659,3.532,6.062,6.32,7.218,2.74,1.136,6.594-1.22,9.571-.63,2.891.571,5.549,4.235,8.606,4.235s5.717-3.663,8.607-4.235c2.978-.589,6.832,1.767,9.572.631,2.788-1.156,3.842-5.559,6.32-7.218,2.5-1.672,6.965-.971,9.082-3.088s1.417-6.585,3.088-9.083c1.659-2.478,6.062-3.531,7.217-6.319C2126.8,1018.131,2124.442,1014.277,2125.031,1011.3Z" transform="translate(0)" fill="#fff"/>
            <g id="Group_953" data-name="Group 953" transform="translate(2054.616 1002.693)">
              <path id="Path_333" data-name="Path 333" d="M2173.4,1199.294l13.455,16.978,13.455-16.978V1095.056H2173.4v104.238Z" transform="translate(-2146.492 -1095.056)" fill="#182a74"/>
              <path id="Path_334" data-name="Path 334" d="M2094.154,1199.294l13.455,16.978,13.454-16.978V1095.056h-26.909v104.238Z" transform="translate(-2094.154 -1095.056)" fill="red"/>
            </g>
            <circle id="Ellipse_94" data-name="Ellipse 94" cx="26.909" cy="26.909" r="26.909" transform="translate(2054.616 975.783)" fill="#ffafa6"/>
            <g id="Group_954" data-name="Group 954" transform="translate(2065.689 993.939)">
              <g id="Group_954-2" data-name="Group 954" transform="translate(0 0)">
                <path id="Path_335" data-name="Path 335" d="M163.75,636.18a17.869,17.869,0,0,1-25.27,0" transform="translate(-135.103 -622.309)" fill="none" stroke="#182a74" stroke-linecap="round" stroke-linejoin="round" stroke-width="1"/>
                <path id="Path_336" data-name="Path 336" d="M125.653,585.755a7.754,7.754,0,0,1,10.965,0" transform="translate(-125.653 -583.484)" fill="none" stroke="#182a74" stroke-linecap="round" stroke-linejoin="round" stroke-width="1"/>
                <path id="Path_337" data-name="Path 337" d="M205.034,585.755a7.754,7.754,0,0,1,10.965,0" transform="translate(-184.138 -583.484)" fill="none" stroke="#182a74" stroke-linecap="round" stroke-linejoin="round" stroke-width="1"/>
              </g>
            </g>
          </g>
        </g>
      </g>
    </g>
  </g>
</svg>
